<svg width="32" height="32" viewBox="0 0 32 32" fill="none" xmlns="http://www.w3.org/2000/svg">
<path d="M24.1201 8C25.5718 8.00002 26.7113 8.3729 27.5371 9.11914C28.3629 9.86553 28.7763 10.887 28.7764 12.1826C28.7764 13.112 28.5628 13.8937 28.1367 14.5273C27.7856 15.0379 27.2926 15.4308 26.6611 15.7119C27.36 15.9543 27.9054 16.3325 28.2959 16.8516C28.7621 17.4712 28.9961 18.274 28.9961 19.2598C28.9961 20.1326 28.8093 20.8859 28.4365 21.5195C28.0636 22.1391 27.517 22.6181 26.7979 22.9561C26.0919 23.28 25.2421 23.5137 24.2432 23.5137H3.09277V23.5098C2.48386 23.4772 2.00001 22.9754 2 22.3584C2 21.7414 2.48383 21.2386 3.09277 21.2061V21.2031H13.5508C14.5231 21.2031 15.3829 20.7379 16.0889 20.3154C16.7945 19.893 17.3342 19.2948 17.707 18.5205C18.08 17.746 18.2666 16.8232 18.2666 15.7529C18.2666 14.6545 18.0728 13.7179 17.6865 12.9434C17.3003 12.1548 16.7475 11.5494 16.0283 11.127C15.3391 10.7221 14.4816 10.4167 13.5205 10.3916C14.2613 10.6204 14.7998 11.3101 14.7998 12.126C14.7998 13.1286 13.987 13.9413 12.9844 13.9414H11.1133V17.9023H8.55566V10.3105H3.09277V10.3066C2.48385 10.2741 2 9.7723 2 9.15527C2 8.53823 2.48383 8.03543 3.09277 8.00293V8H24.1201ZM20.8838 17.0352V21.2031H24.1201C24.8527 21.2031 25.4126 20.872 25.7988 20.5059C26.185 20.1397 26.3779 19.6118 26.3779 18.9219C26.3779 18.2742 26.1787 17.7739 25.7793 17.4219C25.393 17.0557 24.8393 16.8721 24.1201 16.8721H20.9033C20.8973 16.9267 20.8907 16.981 20.8838 17.0352ZM20.8838 14.4629C20.8892 14.5054 20.8945 14.548 20.8994 14.5908H23.9805C24.6862 14.5908 25.2257 14.4079 25.5986 14.042C25.9715 13.6618 26.1582 13.1264 26.1582 12.4365C26.1582 11.7746 25.9653 11.2671 25.5791 10.915C25.1928 10.563 24.6329 10.3867 23.9004 10.3867H20.8838V14.4629Z" fill="black"/>
<line x1="2.5" y1="24.5" x2="28.4958" y2="24.5" stroke="black" stroke-linecap="round"/>
</svg>
