<svg width="64" height="64" viewBox="0 0 64 64" fill="none" xmlns="http://www.w3.org/2000/svg">
<path d="M49.2412 15C52.1448 15.0001 54.4226 15.7465 56.0742 17.2393C57.7258 18.732 58.5517 20.7741 58.5518 23.3652C58.5518 25.2242 58.1259 26.7882 57.2734 28.0557C56.5731 29.0738 55.5927 29.8619 54.335 30.4238C55.7274 30.9088 56.8139 31.6678 57.5928 32.7031C58.525 33.9424 58.9912 35.5481 58.9912 37.5195C58.9912 39.2657 58.6179 40.7726 57.8721 42.04C57.1262 43.2792 56.0341 44.2371 54.5957 44.9131C53.1839 45.5609 51.4851 46.0273 49.4873 46.0273H7.18555V46.0205C5.96769 45.9555 5.00002 44.9509 5 43.7168C5 42.4827 5.96766 41.4771 7.18555 41.4121V41.4062H28.1025C30.0469 41.4061 31.765 40.4767 33.1768 39.6318C34.5886 38.7868 35.6682 37.5891 36.4141 36.04C37.1598 34.491 37.5332 32.6462 37.5332 30.5059C37.5332 28.309 37.1465 26.4358 36.374 24.8867C35.6015 23.3095 34.496 22.0979 33.0576 21.2529C31.676 20.4414 29.9568 19.8259 28.0293 19.7783C29.5171 20.2321 30.5996 21.6157 30.5996 23.252C30.5996 25.2571 28.9739 26.8827 26.9688 26.8828H23.2266V34.8047H18.1123V19.6211H7.18555V19.6143C5.96768 19.5492 5 18.5446 5 17.3105C5 16.0765 5.96766 15.0709 7.18555 15.0059V15H49.2412ZM42.7676 33.0713V41.4062H49.2412C50.7062 41.4061 51.8252 40.744 52.5977 40.0117C53.3701 39.2794 53.7568 38.2228 53.7568 36.8428C53.7567 35.5474 53.3566 34.5478 52.5576 33.8438C51.7851 33.1115 50.6796 32.7452 49.2412 32.7451H42.8076C42.7956 32.8544 42.7814 32.963 42.7676 33.0713ZM42.7676 27.9307C42.7782 28.014 42.7883 28.0977 42.7979 28.1816H48.9609C50.3727 28.1816 51.4524 27.8153 52.1982 27.083C52.9439 26.3225 53.3174 25.252 53.3174 23.8721C53.3173 22.5485 52.9306 21.5342 52.1582 20.8301C51.3857 20.1261 50.2666 19.7745 48.8018 19.7744H42.7676V27.9307Z" fill="black"/>
<line x1="5.5" y1="48.5" x2="58.4915" y2="48.5" stroke="black" stroke-linecap="round"/>
</svg>
