<svg width="512" height="512" viewBox="0 0 512 512" fill="none" xmlns="http://www.w3.org/2000/svg">
<path d="M398.577 123C422.506 123 441.277 128.818 454.888 140.453C468.499 152.088 475.305 168.004 475.305 188.201C475.305 202.69 471.792 214.875 464.767 224.754C459 232.683 450.939 238.835 440.587 243.214C452.049 246.994 460.987 252.914 467.401 260.978C475.085 270.637 478.927 283.15 478.927 298.518C478.927 312.129 475.854 323.874 469.707 333.753C463.56 343.412 454.559 350.877 442.704 356.146C431.069 361.195 417.069 364.83 400.604 364.83H52.0088L51.5439 364.824C41.8128 364.578 34 356.612 34 346.821C34.0002 337.031 41.813 329.066 51.5439 328.819L52.0088 328.813H142.052V328.812H184.202V328.813H224.377C240.403 328.813 254.563 321.568 266.198 314.982C277.833 308.396 286.725 299.066 292.872 286.992C299.019 274.918 302.093 260.538 302.093 243.854C302.093 226.73 298.909 212.131 292.543 200.057C286.177 187.763 277.066 178.322 265.211 171.736C254.122 165.576 240.397 160.856 225.015 160.271C236.565 163.836 244.959 174.596 244.959 187.316C244.959 202.946 232.288 215.616 216.659 215.616H184.202V277.359H142.052V159.018H52.0088L51.5439 159.012C41.8129 158.765 34.0001 150.799 34 141.009C34 131.218 41.8128 123.252 51.5439 123.006L52.0088 123H398.577ZM345.562 261.307C345.46 262.19 345.349 263.07 345.23 263.945V328.813H398.577C410.651 328.813 419.873 323.654 426.239 317.946C432.605 312.238 435.788 304.006 435.788 293.249C435.788 283.15 432.495 275.357 425.909 269.868C419.543 264.16 410.432 261.307 398.577 261.307H345.562ZM345.23 223.674C345.324 224.36 345.412 225.05 345.495 225.742H396.272C407.908 225.742 416.799 222.888 422.946 217.18C429.093 211.252 432.166 202.91 432.166 192.153C432.166 181.835 428.983 173.932 422.616 168.443C416.25 162.955 407.029 160.211 394.955 160.211H345.23V223.674Z" fill="black"/>
<line x1="39" y1="383" x2="473.93" y2="383" stroke="black" stroke-width="10" stroke-linecap="round"/>
</svg>
