<svg width="1024" height="1024" viewBox="0 0 1024 1024" fill="none" xmlns="http://www.w3.org/2000/svg">
<path d="M718.71 298C753.609 298 780.984 307.396 800.835 326.188C820.685 344.981 830.61 370.687 830.61 403.307C830.61 426.708 825.488 446.387 815.242 462.343C806.833 475.148 795.079 485.085 779.983 492.157C796.697 498.262 809.732 507.824 819.085 520.846C830.291 536.447 835.894 556.658 835.894 581.478C835.893 603.461 831.411 622.43 822.446 638.386C813.481 653.987 800.354 666.042 783.064 674.552C766.095 682.707 745.679 688.579 721.666 688.579H213.265V688.441C198.525 687.023 187 674.605 187 659.493C187 644.381 198.525 631.963 213.265 630.544V630.407H464.651C488.024 630.407 508.675 618.706 525.645 608.069C542.614 597.432 555.581 582.363 564.546 562.862C573.511 543.361 577.993 520.137 577.993 493.189C577.993 465.533 573.35 441.954 564.065 422.453C554.78 402.598 541.493 387.351 524.204 376.714C507.212 366.26 485.977 358.375 462.152 358.106C480.964 363.768 494.668 381.221 494.668 401.877C494.668 427.12 474.204 447.583 448.962 447.583H406.06V547.306H344.586V356.171H213.265V356.034C198.525 354.615 187 342.198 187 327.086C187 311.974 198.525 299.555 213.265 298.137V298H718.71ZM641.392 521.378C641.242 522.806 641.081 524.227 640.907 525.641V630.407H718.71C736.319 630.407 749.767 622.075 759.052 612.856C768.337 603.638 772.979 590.341 772.979 572.968C772.979 556.658 768.176 544.07 758.571 535.206C749.286 525.987 735.999 521.378 718.71 521.378H641.392ZM640.907 460.598C641.043 461.706 641.172 462.82 641.293 463.938H715.348C732.317 463.937 745.284 459.328 754.249 450.109C763.214 440.536 767.696 427.062 767.696 409.688C767.696 393.024 763.053 380.26 753.769 371.396C744.484 362.532 731.036 358.1 713.427 358.1H640.907V460.598Z" fill="black"/>
<line x1="192" y1="721" x2="830.898" y2="721" stroke="black" stroke-width="10" stroke-linecap="round"/>
</svg>
