<svg width="240" height="80" viewBox="0 0 240 80" fill="none" xmlns="http://www.w3.org/2000/svg">
<path d="M148.735 13C153.575 13.0001 157.371 14.1858 160.124 16.5566C162.876 18.9275 164.253 22.1708 164.253 26.2861C164.253 29.2384 163.543 31.7214 162.122 33.7344C160.955 35.3508 159.323 36.6047 157.229 37.4971C159.548 38.2673 161.357 39.4727 162.654 41.1162C164.208 43.0845 164.985 45.6343 164.985 48.7656C164.985 51.5391 164.364 53.9332 163.121 55.9463C161.878 57.9145 160.057 59.4352 157.659 60.5088C155.306 61.5376 152.475 62.2782 149.146 62.2783H78.6426V62.2773C76.6285 62.2628 75.0002 60.6269 75 58.6094C75 56.5917 76.6283 54.954 78.6426 54.9395H96.8535V54.9385H105.378V54.9395H113.504C116.745 54.9393 119.609 53.4631 121.962 52.1211C124.315 50.779 126.113 48.8773 127.356 46.417C128.6 43.9567 129.222 41.0266 129.222 37.627C129.222 34.1377 128.578 31.1625 127.29 28.7021C126.002 26.1971 124.159 24.2737 121.762 22.9316C119.511 21.6719 116.724 20.7073 113.6 20.5938C115.954 21.3194 117.666 23.5135 117.666 26.1064C117.666 29.291 115.084 31.8728 111.899 31.873H105.378V44.4541H96.8535V20.3398H78.6426V20.3389C76.6284 20.3243 75.0001 18.6875 75 16.6699C75 14.6523 76.6283 13.0146 78.6426 13H148.735ZM137.946 41.6963V54.9395H148.735C151.177 54.9393 153.042 53.8876 154.329 52.7246C155.617 51.5615 156.261 49.8842 156.261 47.6924C156.261 45.6347 155.595 44.0461 154.263 42.9277C152.975 41.7648 151.133 41.1837 148.735 41.1836H138.012C137.992 41.3553 137.969 41.5261 137.946 41.6963ZM137.946 33.541C137.964 33.6724 137.982 33.8041 137.998 33.9365H148.269C150.621 33.9365 152.42 33.3543 153.663 32.1914C154.906 30.9836 155.528 29.2836 155.528 27.0918C155.528 24.9894 154.884 23.3781 153.597 22.2598C152.309 21.1417 150.444 20.5831 148.003 20.583H137.946V33.541Z" fill="black"/>
<line x1="76" y1="66" x2="163.986" y2="66" stroke="black" stroke-width="2" stroke-linecap="round"/>
</svg>
